<svg width="866" height="105" viewBox="0 0 866 105" fill="none" xmlns="http://www.w3.org/2000/svg">
<mask id="path-1-outside-1" maskUnits="userSpaceOnUse" x="0" y="0" width="866" height="105" fill="black">
<rect fill="white" width="866" height="105"/>
<path d="M49.9525 9.144V16.248H31.0521V76.056H21.9999V16.248H3V9.144H49.9525Z"/>
<path d="M84.87 76.92C79.7636 76.92 75.1214 75.8 70.9435 73.56C66.8318 71.32 63.5822 68.152 61.1948 64.056C58.8737 59.896 57.7132 55.096 57.7132 49.656C57.7132 44.28 58.9069 39.544 61.2943 35.448C63.748 31.288 67.0639 28.12 71.2419 25.944C75.4199 23.704 80.0952 22.584 85.2679 22.584C90.4407 22.584 95.116 23.704 99.294 25.944C103.472 28.12 106.755 31.256 109.142 35.352C111.596 39.448 112.823 44.216 112.823 49.656C112.823 55.096 111.563 59.896 109.043 64.056C106.589 68.152 103.24 71.32 98.9956 73.56C94.7513 75.8 90.0428 76.92 84.87 76.92ZM84.87 69.24C88.1196 69.24 91.1702 68.504 94.0218 67.032C96.8734 65.56 99.1614 63.352 100.886 60.408C102.676 57.464 103.571 53.88 103.571 49.656C103.571 45.432 102.709 41.848 100.985 38.904C99.2609 35.96 97.0061 33.784 94.2208 32.376C91.4354 30.904 88.418 30.168 85.1685 30.168C81.8526 30.168 78.802 30.904 76.0167 32.376C73.2977 33.784 71.1092 35.96 69.4513 38.904C67.7934 41.848 66.9644 45.432 66.9644 49.656C66.9644 53.944 67.7602 57.56 69.3518 60.504C71.0098 63.448 73.1982 65.656 75.9172 67.128C78.6362 68.536 81.6205 69.24 84.87 69.24Z"/>
<path d="M172.831 9.144C180.392 9.144 186.924 10.52 192.428 13.272C197.999 15.96 202.243 19.832 205.161 24.888C208.145 29.944 209.637 35.896 209.637 42.744C209.637 49.592 208.145 55.544 205.161 60.6C202.243 65.592 197.999 69.432 192.428 72.12C186.924 74.744 180.392 76.056 172.831 76.056H151.245V9.144H172.831ZM172.831 68.856C181.784 68.856 188.615 66.584 193.323 62.04C198.032 57.432 200.386 51 200.386 42.744C200.386 34.424 197.999 27.928 193.224 23.256C188.515 18.584 181.718 16.248 172.831 16.248H160.297V68.856H172.831Z"/>
<path d="M245.352 76.92C240.246 76.92 235.604 75.8 231.426 73.56C227.314 71.32 224.065 68.152 221.677 64.056C219.356 59.896 218.195 55.096 218.195 49.656C218.195 44.28 219.389 39.544 221.777 35.448C224.23 31.288 227.546 28.12 231.724 25.944C235.902 23.704 240.577 22.584 245.75 22.584C250.923 22.584 255.598 23.704 259.776 25.944C263.954 28.12 267.237 31.256 269.624 35.352C272.078 39.448 273.305 44.216 273.305 49.656C273.305 55.096 272.045 59.896 269.525 64.056C267.071 68.152 263.722 71.32 259.478 73.56C255.234 75.8 250.525 76.92 245.352 76.92ZM245.352 69.24C248.602 69.24 251.652 68.504 254.504 67.032C257.356 65.56 259.644 63.352 261.368 60.408C263.158 57.464 264.054 53.88 264.054 49.656C264.054 45.432 263.192 41.848 261.467 38.904C259.743 35.96 257.488 33.784 254.703 32.376C251.918 30.904 248.9 30.168 245.651 30.168C242.335 30.168 239.284 30.904 236.499 32.376C233.78 33.784 231.591 35.96 229.934 38.904C228.276 41.848 227.447 45.432 227.447 49.656C227.447 53.944 228.242 57.56 229.834 60.504C231.492 63.448 233.68 65.656 236.399 67.128C239.118 68.536 242.103 69.24 245.352 69.24Z"/>
<path d="M352.711 61.176H322.471L316.9 76.056H307.351L332.418 9.528H342.863L367.832 76.056H358.282L352.711 61.176ZM350.125 54.072L337.591 20.28L325.057 54.072H350.125Z"/>
<path d="M387.809 33.144C389.6 30.136 392.253 27.64 395.767 25.656C399.348 23.608 403.493 22.584 408.202 22.584C413.043 22.584 417.42 23.704 421.333 25.944C425.312 28.184 428.428 31.352 430.683 35.448C432.938 39.48 434.065 44.184 434.065 49.56C434.065 54.872 432.938 59.608 430.683 63.768C428.428 67.928 425.312 71.16 421.333 73.464C417.42 75.768 413.043 76.92 408.202 76.92C403.56 76.92 399.448 75.928 395.867 73.944C392.352 71.896 389.666 69.368 387.809 66.36V101.016H378.757V23.448H387.809V33.144ZM424.814 49.56C424.814 45.592 423.985 42.136 422.327 39.192C420.669 36.248 418.415 34.008 415.563 32.472C412.778 30.936 409.694 30.168 406.312 30.168C402.996 30.168 399.912 30.968 397.06 32.568C394.275 34.104 392.02 36.376 390.296 39.384C388.638 42.328 387.809 45.752 387.809 49.656C387.809 53.624 388.638 57.112 390.296 60.12C392.02 63.064 394.275 65.336 397.06 66.936C399.912 68.472 402.996 69.24 406.312 69.24C409.694 69.24 412.778 68.472 415.563 66.936C418.415 65.336 420.669 63.064 422.327 60.12C423.985 57.112 424.814 53.592 424.814 49.56Z"/>
<path d="M455.033 33.144C456.824 30.136 459.476 27.64 462.991 25.656C466.572 23.608 470.717 22.584 475.426 22.584C480.267 22.584 484.644 23.704 488.556 25.944C492.535 28.184 495.652 31.352 497.907 35.448C500.162 39.48 501.289 44.184 501.289 49.56C501.289 54.872 500.162 59.608 497.907 63.768C495.652 67.928 492.535 71.16 488.556 73.464C484.644 75.768 480.267 76.92 475.426 76.92C470.783 76.92 466.672 75.928 463.091 73.944C459.576 71.896 456.89 69.368 455.033 66.36V101.016H445.981V23.448H455.033V33.144ZM492.038 49.56C492.038 45.592 491.209 42.136 489.551 39.192C487.893 36.248 485.638 34.008 482.787 32.472C480.001 30.936 476.918 30.168 473.536 30.168C470.22 30.168 467.136 30.968 464.284 32.568C461.499 34.104 459.244 36.376 457.52 39.384C455.862 42.328 455.033 45.752 455.033 49.656C455.033 53.624 455.862 57.112 457.52 60.12C459.244 63.064 461.499 65.336 464.284 66.936C467.136 68.472 470.22 69.24 473.536 69.24C476.918 69.24 480.001 68.472 482.787 66.936C485.638 65.336 487.893 63.064 489.551 60.12C491.209 57.112 492.038 53.592 492.038 49.56Z"/>
<path d="M522.257 5.016V76.056H513.205V5.016H522.257Z"/>
<path d="M542.36 14.904C540.636 14.904 539.177 14.328 537.983 13.176C536.79 12.024 536.193 10.616 536.193 8.952C536.193 7.288 536.79 5.88 537.983 4.728C539.177 3.576 540.636 3 542.36 3C544.018 3 545.411 3.576 546.538 4.728C547.732 5.88 548.329 7.288 548.329 8.952C548.329 10.616 547.732 12.024 546.538 13.176C545.411 14.328 544.018 14.904 542.36 14.904ZM546.737 23.448V76.056H537.685V23.448H546.737Z"/>
<path d="M558.783 49.656C558.783 44.216 559.911 39.48 562.165 35.448C564.42 31.352 567.537 28.184 571.516 25.944C575.561 23.704 580.17 22.584 585.343 22.584C592.041 22.584 597.545 24.152 601.856 27.288C606.233 30.424 609.118 34.776 610.51 40.344H600.762C599.833 37.144 598.01 34.616 595.291 32.76C592.638 30.904 589.322 29.976 585.343 29.976C580.17 29.976 575.992 31.704 572.809 35.16C569.626 38.552 568.034 43.384 568.034 49.656C568.034 55.992 569.626 60.888 572.809 64.344C575.992 67.8 580.17 69.528 585.343 69.528C589.322 69.528 592.638 68.632 595.291 66.84C597.943 65.048 599.767 62.488 600.762 59.16H610.51C609.051 64.536 606.134 68.856 601.757 72.12C597.38 75.32 591.909 76.92 585.343 76.92C580.17 76.92 575.561 75.8 571.516 73.56C567.537 71.32 564.42 68.152 562.165 64.056C559.911 59.96 558.783 55.16 558.783 49.656Z"/>
<path d="M619.207 49.56C619.207 44.184 620.334 39.48 622.589 35.448C624.844 31.352 627.928 28.184 631.84 25.944C635.819 23.704 640.229 22.584 645.071 22.584C649.845 22.584 653.99 23.576 657.505 25.56C661.02 27.544 663.639 30.04 665.364 33.048V23.448H674.515V76.056H665.364V66.264C663.573 69.336 660.887 71.896 657.306 73.944C653.791 75.928 649.68 76.92 644.971 76.92C640.13 76.92 635.753 75.768 631.84 73.464C627.928 71.16 624.844 67.928 622.589 63.768C620.334 59.608 619.207 54.872 619.207 49.56ZM665.364 49.656C665.364 45.688 664.535 42.232 662.877 39.288C661.219 36.344 658.964 34.104 656.112 32.568C653.327 30.968 650.243 30.168 646.861 30.168C643.479 30.168 640.395 30.936 637.61 32.472C634.825 34.008 632.603 36.248 630.945 39.192C629.287 42.136 628.458 45.592 628.458 49.56C628.458 53.592 629.287 57.112 630.945 60.12C632.603 63.064 634.825 65.336 637.61 66.936C640.395 68.472 643.479 69.24 646.861 69.24C650.243 69.24 653.327 68.472 656.112 66.936C658.964 65.336 661.219 63.064 662.877 60.12C664.535 57.112 665.364 53.624 665.364 49.656Z"/>
<path d="M700.855 30.648V61.656C700.855 64.216 701.418 66.04 702.546 67.128C703.673 68.152 705.629 68.664 708.415 68.664H715.08V76.056H706.923C701.883 76.056 698.102 74.936 695.582 72.696C693.062 70.456 691.802 66.776 691.802 61.656V30.648H684.74V23.448H691.802V10.2H700.855V23.448H715.08V30.648H700.855Z"/>
<path d="M730.723 14.904C728.999 14.904 727.54 14.328 726.346 13.176C725.152 12.024 724.555 10.616 724.555 8.952C724.555 7.288 725.152 5.88 726.346 4.728C727.54 3.576 728.999 3 730.723 3C732.381 3 733.774 3.576 734.901 4.728C736.095 5.88 736.691 7.288 736.691 8.952C736.691 10.616 736.095 12.024 734.901 13.176C733.774 14.328 732.381 14.904 730.723 14.904ZM735.1 23.448V76.056H726.048V23.448H735.1Z"/>
<path d="M774.303 76.92C769.196 76.92 764.554 75.8 760.376 73.56C756.264 71.32 753.015 68.152 750.627 64.056C748.306 59.896 747.146 55.096 747.146 49.656C747.146 44.28 748.339 39.544 750.727 35.448C753.181 31.288 756.496 28.12 760.674 25.944C764.852 23.704 769.528 22.584 774.701 22.584C779.873 22.584 784.549 23.704 788.727 25.944C792.905 28.12 796.187 31.256 798.575 35.352C801.028 39.448 802.255 44.216 802.255 49.656C802.255 55.096 800.995 59.896 798.475 64.056C796.021 68.152 792.672 71.32 788.428 73.56C784.184 75.8 779.475 76.92 774.303 76.92ZM774.303 69.24C777.552 69.24 780.603 68.504 783.454 67.032C786.306 65.56 788.594 63.352 790.318 60.408C792.109 57.464 793.004 53.88 793.004 49.656C793.004 45.432 792.142 41.848 790.418 38.904C788.693 35.96 786.439 33.784 783.653 32.376C780.868 30.904 777.851 30.168 774.601 30.168C771.285 30.168 768.235 30.904 765.449 32.376C762.73 33.784 760.542 35.96 758.884 38.904C757.226 41.848 756.397 45.432 756.397 49.656C756.397 53.944 757.193 57.56 758.784 60.504C760.442 63.448 762.631 65.656 765.35 67.128C768.069 68.536 771.053 69.24 774.303 69.24Z"/>
<path d="M840.717 22.488C847.349 22.488 852.721 24.44 856.832 28.344C860.944 32.184 863 37.752 863 45.048V76.056H854.047V46.296C854.047 41.048 852.688 37.048 849.969 34.296C847.25 31.48 843.536 30.072 838.827 30.072C834.053 30.072 830.239 31.512 827.388 34.392C824.602 37.272 823.21 41.464 823.21 46.968V76.056H814.157V23.448H823.21V30.936C825 28.248 827.421 26.168 830.471 24.696C833.588 23.224 837.004 22.488 840.717 22.488Z"/>
</mask>
<path d="M49.9525 9.144V16.248H31.0521V76.056H21.9999V16.248H3V9.144H49.9525Z" stroke="white" stroke-width="6" stroke-linecap="round" mask="url(#path-1-outside-1)"/>
<path d="M84.87 76.92C79.7636 76.92 75.1214 75.8 70.9435 73.56C66.8318 71.32 63.5822 68.152 61.1948 64.056C58.8737 59.896 57.7132 55.096 57.7132 49.656C57.7132 44.28 58.9069 39.544 61.2943 35.448C63.748 31.288 67.0639 28.12 71.2419 25.944C75.4199 23.704 80.0952 22.584 85.2679 22.584C90.4407 22.584 95.116 23.704 99.294 25.944C103.472 28.12 106.755 31.256 109.142 35.352C111.596 39.448 112.823 44.216 112.823 49.656C112.823 55.096 111.563 59.896 109.043 64.056C106.589 68.152 103.24 71.32 98.9956 73.56C94.7513 75.8 90.0428 76.92 84.87 76.92ZM84.87 69.24C88.1196 69.24 91.1702 68.504 94.0218 67.032C96.8734 65.56 99.1614 63.352 100.886 60.408C102.676 57.464 103.571 53.88 103.571 49.656C103.571 45.432 102.709 41.848 100.985 38.904C99.2609 35.96 97.0061 33.784 94.2208 32.376C91.4354 30.904 88.418 30.168 85.1685 30.168C81.8526 30.168 78.802 30.904 76.0167 32.376C73.2977 33.784 71.1092 35.96 69.4513 38.904C67.7934 41.848 66.9644 45.432 66.9644 49.656C66.9644 53.944 67.7602 57.56 69.3518 60.504C71.0098 63.448 73.1982 65.656 75.9172 67.128C78.6362 68.536 81.6205 69.24 84.87 69.24Z" stroke="white" stroke-width="6" stroke-linecap="round" mask="url(#path-1-outside-1)"/>
<path d="M172.831 9.144C180.392 9.144 186.924 10.52 192.428 13.272C197.999 15.96 202.243 19.832 205.161 24.888C208.145 29.944 209.637 35.896 209.637 42.744C209.637 49.592 208.145 55.544 205.161 60.6C202.243 65.592 197.999 69.432 192.428 72.12C186.924 74.744 180.392 76.056 172.831 76.056H151.245V9.144H172.831ZM172.831 68.856C181.784 68.856 188.615 66.584 193.323 62.04C198.032 57.432 200.386 51 200.386 42.744C200.386 34.424 197.999 27.928 193.224 23.256C188.515 18.584 181.718 16.248 172.831 16.248H160.297V68.856H172.831Z" stroke="white" stroke-width="6" stroke-linecap="round" mask="url(#path-1-outside-1)"/>
<path d="M245.352 76.92C240.246 76.92 235.604 75.8 231.426 73.56C227.314 71.32 224.065 68.152 221.677 64.056C219.356 59.896 218.195 55.096 218.195 49.656C218.195 44.28 219.389 39.544 221.777 35.448C224.23 31.288 227.546 28.12 231.724 25.944C235.902 23.704 240.577 22.584 245.75 22.584C250.923 22.584 255.598 23.704 259.776 25.944C263.954 28.12 267.237 31.256 269.624 35.352C272.078 39.448 273.305 44.216 273.305 49.656C273.305 55.096 272.045 59.896 269.525 64.056C267.071 68.152 263.722 71.32 259.478 73.56C255.234 75.8 250.525 76.92 245.352 76.92ZM245.352 69.24C248.602 69.24 251.652 68.504 254.504 67.032C257.356 65.56 259.644 63.352 261.368 60.408C263.158 57.464 264.054 53.88 264.054 49.656C264.054 45.432 263.192 41.848 261.467 38.904C259.743 35.96 257.488 33.784 254.703 32.376C251.918 30.904 248.9 30.168 245.651 30.168C242.335 30.168 239.284 30.904 236.499 32.376C233.78 33.784 231.591 35.96 229.934 38.904C228.276 41.848 227.447 45.432 227.447 49.656C227.447 53.944 228.242 57.56 229.834 60.504C231.492 63.448 233.68 65.656 236.399 67.128C239.118 68.536 242.103 69.24 245.352 69.24Z" stroke="white" stroke-width="6" stroke-linecap="round" mask="url(#path-1-outside-1)"/>
<path d="M352.711 61.176H322.471L316.9 76.056H307.351L332.418 9.528H342.863L367.832 76.056H358.282L352.711 61.176ZM350.125 54.072L337.591 20.28L325.057 54.072H350.125Z" stroke="white" stroke-width="6" stroke-linecap="round" mask="url(#path-1-outside-1)"/>
<path d="M387.809 33.144C389.6 30.136 392.253 27.64 395.767 25.656C399.348 23.608 403.493 22.584 408.202 22.584C413.043 22.584 417.42 23.704 421.333 25.944C425.312 28.184 428.428 31.352 430.683 35.448C432.938 39.48 434.065 44.184 434.065 49.56C434.065 54.872 432.938 59.608 430.683 63.768C428.428 67.928 425.312 71.16 421.333 73.464C417.42 75.768 413.043 76.92 408.202 76.92C403.56 76.92 399.448 75.928 395.867 73.944C392.352 71.896 389.666 69.368 387.809 66.36V101.016H378.757V23.448H387.809V33.144ZM424.814 49.56C424.814 45.592 423.985 42.136 422.327 39.192C420.669 36.248 418.415 34.008 415.563 32.472C412.778 30.936 409.694 30.168 406.312 30.168C402.996 30.168 399.912 30.968 397.06 32.568C394.275 34.104 392.02 36.376 390.296 39.384C388.638 42.328 387.809 45.752 387.809 49.656C387.809 53.624 388.638 57.112 390.296 60.12C392.02 63.064 394.275 65.336 397.06 66.936C399.912 68.472 402.996 69.24 406.312 69.24C409.694 69.24 412.778 68.472 415.563 66.936C418.415 65.336 420.669 63.064 422.327 60.12C423.985 57.112 424.814 53.592 424.814 49.56Z" stroke="white" stroke-width="6" stroke-linecap="round" mask="url(#path-1-outside-1)"/>
<path d="M455.033 33.144C456.824 30.136 459.476 27.64 462.991 25.656C466.572 23.608 470.717 22.584 475.426 22.584C480.267 22.584 484.644 23.704 488.556 25.944C492.535 28.184 495.652 31.352 497.907 35.448C500.162 39.48 501.289 44.184 501.289 49.56C501.289 54.872 500.162 59.608 497.907 63.768C495.652 67.928 492.535 71.16 488.556 73.464C484.644 75.768 480.267 76.92 475.426 76.92C470.783 76.92 466.672 75.928 463.091 73.944C459.576 71.896 456.89 69.368 455.033 66.36V101.016H445.981V23.448H455.033V33.144ZM492.038 49.56C492.038 45.592 491.209 42.136 489.551 39.192C487.893 36.248 485.638 34.008 482.787 32.472C480.001 30.936 476.918 30.168 473.536 30.168C470.22 30.168 467.136 30.968 464.284 32.568C461.499 34.104 459.244 36.376 457.52 39.384C455.862 42.328 455.033 45.752 455.033 49.656C455.033 53.624 455.862 57.112 457.52 60.12C459.244 63.064 461.499 65.336 464.284 66.936C467.136 68.472 470.22 69.24 473.536 69.24C476.918 69.24 480.001 68.472 482.787 66.936C485.638 65.336 487.893 63.064 489.551 60.12C491.209 57.112 492.038 53.592 492.038 49.56Z" stroke="white" stroke-width="6" stroke-linecap="round" mask="url(#path-1-outside-1)"/>
<path d="M522.257 5.016V76.056H513.205V5.016H522.257Z" stroke="white" stroke-width="6" stroke-linecap="round" mask="url(#path-1-outside-1)"/>
<path d="M542.36 14.904C540.636 14.904 539.177 14.328 537.983 13.176C536.79 12.024 536.193 10.616 536.193 8.952C536.193 7.288 536.79 5.88 537.983 4.728C539.177 3.576 540.636 3 542.36 3C544.018 3 545.411 3.576 546.538 4.728C547.732 5.88 548.329 7.288 548.329 8.952C548.329 10.616 547.732 12.024 546.538 13.176C545.411 14.328 544.018 14.904 542.36 14.904ZM546.737 23.448V76.056H537.685V23.448H546.737Z" stroke="white" stroke-width="6" stroke-linecap="round" mask="url(#path-1-outside-1)"/>
<path d="M558.783 49.656C558.783 44.216 559.911 39.48 562.165 35.448C564.42 31.352 567.537 28.184 571.516 25.944C575.561 23.704 580.17 22.584 585.343 22.584C592.041 22.584 597.545 24.152 601.856 27.288C606.233 30.424 609.118 34.776 610.51 40.344H600.762C599.833 37.144 598.01 34.616 595.291 32.76C592.638 30.904 589.322 29.976 585.343 29.976C580.17 29.976 575.992 31.704 572.809 35.16C569.626 38.552 568.034 43.384 568.034 49.656C568.034 55.992 569.626 60.888 572.809 64.344C575.992 67.8 580.17 69.528 585.343 69.528C589.322 69.528 592.638 68.632 595.291 66.84C597.943 65.048 599.767 62.488 600.762 59.16H610.51C609.051 64.536 606.134 68.856 601.757 72.12C597.38 75.32 591.909 76.92 585.343 76.92C580.17 76.92 575.561 75.8 571.516 73.56C567.537 71.32 564.42 68.152 562.165 64.056C559.911 59.96 558.783 55.16 558.783 49.656Z" stroke="white" stroke-width="6" stroke-linecap="round" mask="url(#path-1-outside-1)"/>
<path d="M619.207 49.56C619.207 44.184 620.334 39.48 622.589 35.448C624.844 31.352 627.928 28.184 631.84 25.944C635.819 23.704 640.229 22.584 645.071 22.584C649.845 22.584 653.99 23.576 657.505 25.56C661.02 27.544 663.639 30.04 665.364 33.048V23.448H674.515V76.056H665.364V66.264C663.573 69.336 660.887 71.896 657.306 73.944C653.791 75.928 649.68 76.92 644.971 76.92C640.13 76.92 635.753 75.768 631.84 73.464C627.928 71.16 624.844 67.928 622.589 63.768C620.334 59.608 619.207 54.872 619.207 49.56ZM665.364 49.656C665.364 45.688 664.535 42.232 662.877 39.288C661.219 36.344 658.964 34.104 656.112 32.568C653.327 30.968 650.243 30.168 646.861 30.168C643.479 30.168 640.395 30.936 637.61 32.472C634.825 34.008 632.603 36.248 630.945 39.192C629.287 42.136 628.458 45.592 628.458 49.56C628.458 53.592 629.287 57.112 630.945 60.12C632.603 63.064 634.825 65.336 637.61 66.936C640.395 68.472 643.479 69.24 646.861 69.24C650.243 69.24 653.327 68.472 656.112 66.936C658.964 65.336 661.219 63.064 662.877 60.12C664.535 57.112 665.364 53.624 665.364 49.656Z" stroke="white" stroke-width="6" stroke-linecap="round" mask="url(#path-1-outside-1)"/>
<path d="M700.855 30.648V61.656C700.855 64.216 701.418 66.04 702.546 67.128C703.673 68.152 705.629 68.664 708.415 68.664H715.08V76.056H706.923C701.883 76.056 698.102 74.936 695.582 72.696C693.062 70.456 691.802 66.776 691.802 61.656V30.648H684.74V23.448H691.802V10.2H700.855V23.448H715.08V30.648H700.855Z" stroke="white" stroke-width="6" stroke-linecap="round" mask="url(#path-1-outside-1)"/>
<path d="M730.723 14.904C728.999 14.904 727.54 14.328 726.346 13.176C725.152 12.024 724.555 10.616 724.555 8.952C724.555 7.288 725.152 5.88 726.346 4.728C727.54 3.576 728.999 3 730.723 3C732.381 3 733.774 3.576 734.901 4.728C736.095 5.88 736.691 7.288 736.691 8.952C736.691 10.616 736.095 12.024 734.901 13.176C733.774 14.328 732.381 14.904 730.723 14.904ZM735.1 23.448V76.056H726.048V23.448H735.1Z" stroke="white" stroke-width="6" stroke-linecap="round" mask="url(#path-1-outside-1)"/>
<path d="M774.303 76.92C769.196 76.92 764.554 75.8 760.376 73.56C756.264 71.32 753.015 68.152 750.627 64.056C748.306 59.896 747.146 55.096 747.146 49.656C747.146 44.28 748.339 39.544 750.727 35.448C753.181 31.288 756.496 28.12 760.674 25.944C764.852 23.704 769.528 22.584 774.701 22.584C779.873 22.584 784.549 23.704 788.727 25.944C792.905 28.12 796.187 31.256 798.575 35.352C801.028 39.448 802.255 44.216 802.255 49.656C802.255 55.096 800.995 59.896 798.475 64.056C796.021 68.152 792.672 71.32 788.428 73.56C784.184 75.8 779.475 76.92 774.303 76.92ZM774.303 69.24C777.552 69.24 780.603 68.504 783.454 67.032C786.306 65.56 788.594 63.352 790.318 60.408C792.109 57.464 793.004 53.88 793.004 49.656C793.004 45.432 792.142 41.848 790.418 38.904C788.693 35.96 786.439 33.784 783.653 32.376C780.868 30.904 777.851 30.168 774.601 30.168C771.285 30.168 768.235 30.904 765.449 32.376C762.73 33.784 760.542 35.96 758.884 38.904C757.226 41.848 756.397 45.432 756.397 49.656C756.397 53.944 757.193 57.56 758.784 60.504C760.442 63.448 762.631 65.656 765.35 67.128C768.069 68.536 771.053 69.24 774.303 69.24Z" stroke="white" stroke-width="6" stroke-linecap="round" mask="url(#path-1-outside-1)"/>
<path d="M840.717 22.488C847.349 22.488 852.721 24.44 856.832 28.344C860.944 32.184 863 37.752 863 45.048V76.056H854.047V46.296C854.047 41.048 852.688 37.048 849.969 34.296C847.25 31.48 843.536 30.072 838.827 30.072C834.053 30.072 830.239 31.512 827.388 34.392C824.602 37.272 823.21 41.464 823.21 46.968V76.056H814.157V23.448H823.21V30.936C825 28.248 827.421 26.168 830.471 24.696C833.588 23.224 837.004 22.488 840.717 22.488Z" stroke="white" stroke-width="6" stroke-linecap="round" mask="url(#path-1-outside-1)"/>
</svg>
